HIERARCHY
ROOT Hips
{
  OFFSET 50.9112 96.0207 -12.4206
  CHANNELS 6 Xposition Yposition Zposition Zrotation Xrotation Yrotation
  JOINT spine
  {
    OFFSET 0 8.13249 0.467659
    CHANNELS 3 Zrotation Xrotation Yrotation
    JOINT spine1
    {
      OFFSET 0 10.3498 0
      CHANNELS 3 Zrotation Xrotation Yrotation
      JOINT spine2
      {
        OFFSET 0 9.91699 0
        CHANNELS 3 Zrotation Xrotation Yrotation
        JOINT Neck
        {
          OFFSET 0 25.461 1.2139
          CHANNELS 3 Zrotation Xrotation Yrotation
          JOINT Head
          {
            OFFSET 0 7.69245 0
            CHANNELS 3 Zrotation Xrotation Yrotation
            End Site
            {
              OFFSET 0 18.62 -6.14063
            }
          }
        }
        JOINT RightShoulder
        {
          OFFSET -4.17575 10.7096 -0.581445
          CHANNELS 3 Zrotation Xrotation Yrotation
          JOINT RightArm
          {
            OFFSET 0 14.0466 0
            CHANNELS 3 Zrotation Xrotation Yrotation
            JOINT RightArmRoll
            {
              OFFSET 0 7.09098 0
              CHANNELS 3 Zrotation Xrotation Yrotation
              JOINT RightForeArm
              {
                OFFSET 0 20.6535 0
                CHANNELS 3 Zrotation Xrotation Yrotation
                JOINT RightForeArmRoll
                {
                  OFFSET 0 7.95718 0
                  CHANNELS 3 Zrotation Xrotation Yrotation
                  JOINT RightHand
                  {
                    OFFSET 0 15.9683 0
                    CHANNELS 3 Zrotation Xrotation Yrotation
                    End Site
                    {
                      OFFSET 0 0 0
                    }
                  }
                }
              }
            }
          }
        }
        JOINT LeftShoulder
        {
          OFFSET 4.17575 10.7096 -0.581445
          CHANNELS 3 Zrotation Xrotation Yrotation
          JOINT LeftArm
          {
            OFFSET 0 14.0466 0
            CHANNELS 3 Zrotation Xrotation Yrotation
            JOINT LeftArmRoll
            {
              OFFSET 0 7.09099 0
              CHANNELS 3 Zrotation Xrotation Yrotation
              JOINT LeftForeArm
              {
                OFFSET 0 20.6535 0
                CHANNELS 3 Zrotation Xrotation Yrotation
                JOINT LeftForeArmRoll
                {
                  OFFSET 0 7.95718 0
                  CHANNELS 3 Zrotation Xrotation Yrotation
                  JOINT LeftHand
                  {
                    OFFSET 0 15.9683 0
                    CHANNELS 3 Zrotation Xrotation Yrotation
                    End Site
                    {
                      OFFSET 0 0 0
                    }
                  }
                }
              }
            }
          }
        }
      }
    }
  }
  JOINT RightUpLeg
  {
    OFFSET -7.20834 -1.32182 -1.10884
    CHANNELS 3 Zrotation Xrotation Yrotation
    JOINT RightUpLegRoll
    {
      OFFSET 0 18.7238 0
      CHANNELS 3 Zrotation Xrotation Yrotation
      JOINT RightLeg
      {
        OFFSET 0 -23.1866 0
        CHANNELS 3 Zrotation Xrotation Yrotation
        JOINT RightLegRoll
        {
          OFFSET 0 23.2624 0
          CHANNELS 3 Zrotation Xrotation Yrotation
          JOINT RightFoot
          {
            OFFSET 0 19.3621 0
            CHANNELS 3 Zrotation Xrotation Yrotation
            JOINT RightToeBase
            {
              OFFSET 0 16.1857 0
              CHANNELS 3 Zrotation Xrotation Yrotation
              End Site
              {
                OFFSET 0.00686052 7.83862 -0.903522
              }
            }
          }
        }
      }
    }
  }
  JOINT LeftUpLeg
  {
    OFFSET 7.20834 -1.32182 -1.10884
    CHANNELS 3 Zrotation Xrotation Yrotation
    JOINT LeftUpLegRoll
    {
      OFFSET 0 18.7239 0
      CHANNELS 3 Zrotation Xrotation Yrotation
      JOINT LeftLeg
      {
        OFFSET 0 23.1865 0
        CHANNELS 3 Zrotation Xrotation Yrotation
        JOINT LeftLegRoll
        {
          OFFSET 0 23.4775 0
          CHANNELS 3 Zrotation Xrotation Yrotation
          JOINT LeftFoot
          {
            OFFSET 0 19.147 0
            CHANNELS 3 Zrotation Xrotation Yrotation
            JOINT LeftToeBase
            {
              OFFSET 0 16.1857 0
              CHANNELS 3 Zrotation Xrotation Yrotation
              End Site
              {
                OFFSET -0.0307459 7.83863 -0.903522
              }
            }
          }
        }
      }
    }
  }
}
MOTION
Frames: 13
Frame Time: 0.00208333
48.0558 104.779 -0.318143 -1.54191 1.57418 -0.536554 0.377544 0.428674 0.00508126 0.757345 4.85998 -0.0360396 0.759121 6.50498 -0.0488404 3.44568 -14.0099 -3.51507 -2.91486 6.87001 -3.62845 48.6464 -11.4955 -7.32496 111.823 13.3275 -51.7169 -1.71069e-005 1.49936e-006 -3.11418e-006 -122.787 85.3614 114.287 -5.51995e-006 -8.83022e-006 -3.00049 8.02887 -4.95141 0.697681 -47.0841 -8.75732 5.20097 -117.797 16.9712 55.8579 7.40136e-006 -5.18178e-007 3.14964e-006 102.55 80.5191 -92.665 5.98026e-006 7.29195e-007 3 -8.02895 -4.95143 -0.697683 176.325 10.8746 1.49942 180 7.01579e-015 179.074 178.434 15.2623 179.685 2.31271e-006 7.68175e-007 0.189989 -18.2652 67.8199 19.3931 8.1365 25.2327 -3.48774 -171.479 8.63171 -2.39474 4.54188e-006 -4.6773e-006 -0.978177 -1.0825 -12.4601 0.206592 2.69008e-006 -6.75328e-007 -0.103606 17.5907 66.8766 -18.6604 -8.13272 25.1774 3.5621 
48.0518 105.036 -0.271235 -1.54346 1.52955 -0.536779 0.367755 0.429314 0.00766105 0.737648 4.8613 -0.0279518 0.739292 6.5063 -0.0404105 3.53143 -13.9646 -3.5173 -2.97331 6.92453 -3.62722 48.6853 -11.5253 -7.34713 111.433 12.9957 -52.0145 -1.71069e-005 1.49936e-006 -3.11418e-006 -124.48 84.9611 115.656 -5.51995e-006 -8.83022e-006 -3.00049 8.02887 -4.95141 0.697681 -47.0519 -8.74689 5.19214 -117.374 16.5739 56.103 7.40136e-006 -5.18178e-007 3.14964e-006 105.005 80.1333 -94.7478 5.98026e-006 7.29195e-007 3 -8.02895 -4.95143 -0.697683 176.365 10.6617 1.46662 180 7.01579e-015 179.074 178.451 15.0416 179.687 2.31271e-006 7.68175e-007 0.186113 -18.2603 67.8151 19.3911 8.1365 25.2327 -3.48774 -171.463 8.35825 -2.38728 4.54188e-006 -4.6773e-006 -0.977841 -1.08539 -12.0313 0.198901 2.69008e-006 -6.75328e-007 -0.0946367 17.5544 66.8322 -18.6273 -8.13275 25.1779 3.56148 
48.0359 105.325 -0.274407 -1.54556 1.48471 -0.537427 0.35846 0.430127 0.00958793 0.718953 4.86295 -0.0211944 0.720483 6.50796 -0.0333295 3.60399 -13.9124 -3.51927 -3.02094 6.97321 -3.62538 48.7129 -11.5527 -7.36735 111.056 12.6633 -52.3139 -1.71069e-005 1.49936e-006 -3.11418e-006 -125.852 84.5646 116.707 -5.51995e-006 -8.83022e-006 -3.00049 8.02887 -4.95141 0.697681 -47.0231 -8.73735 5.18405 -116.95 16.1722 56.3478 7.40136e-006 -5.18178e-007 3.14964e-006 107.244 79.7336 -96.6121 5.98026e-006 7.29195e-007 3 -8.02895 -4.95143 -0.697683 176.405 10.4605 1.43841 180 7.01579e-015 179.075 178.465 14.8558 179.691 2.31271e-006 7.68175e-007 0.182703 -18.2566 67.8122 19.3906 8.1365 25.2327 -3.48774 -171.447 8.09539 -2.38571 4.54188e-006 -4.6773e-006 -0.977537 -1.09272 -11.63 0.190145 2.69008e-006 -6.75328e-007 -0.0861197 17.5183 66.788 -18.5947 -8.13296 25.1809 3.55743 
48.0672 105.574 -0.196237 -1.54818 1.44005 -0.538436 0.349752 0.431041 0.0109525 0.701444 4.8648 -0.0156394 0.702876 6.50981 -0.0274725 3.66365 -13.8534 -3.52106 -3.05853 7.01596 -3.62312 48.729 -11.5778 -7.38589 110.691 12.3297 -52.6144 -1.71069e-005 1.49936e-006 -3.11418e-006 -126.982 84.1725 117.517 -5.51995e-006 -8.83022e-006 -3.00049 8.02887 -4.95141 0.697681 -46.9975 -8.72897 5.17692 -116.526 15.7657 56.5931 7.40136e-006 -5.18178e-007 3.14964e-006 109.281 79.3235 -98.2735 5.98026e-006 7.29195e-007 3 -8.02895 -4.95143 -0.697683 176.445 10.2702 1.41396 180 7.01579e-015 179.075 178.475 14.7001 179.695 2.31271e-006 7.68175e-007 0.179714 -18.2542 67.8109 19.3914 8.1365 25.2327 -3.48774 -171.431 7.84355 -2.38877 4.54188e-006 -4.6773e-006 -0.977279 -1.10326 -11.2561 0.180687 2.69008e-006 -6.75328e-007 -0.0780826 17.4829 66.7449 -18.5628 -8.13331 25.1859 3.55067 
48.0024 105.872 -0.183674 -1.55132 1.39596 -0.539743 0.341723 0.431983 0.0118454 0.685303 4.8667 -0.0111589 0.686654 6.51172 -0.0227145 3.71067 -13.7881 -3.52276 -3.08689 7.05268 -3.62066 48.7335 -11.6009 -7.40298 110.339 11.9944 -52.9156 -1.71069e-005 1.49936e-006 -3.11418e-006 -127.926 83.7849 118.144 -5.51995e-006 -8.83022e-006 -3.00049 8.02887 -4.95141 0.697681 -46.9748 -8.72202 5.17095 -116.103 15.3542 56.8396 7.40136e-006 -5.18178e-007 3.14964e-006 111.132 78.906 -99.748 5.98026e-006 7.29195e-007 3 -8.02895 -4.95143 -0.697683 176.486 10.0899 1.39245 180 7.0158e-015 179.075 178.482 14.5697 179.699 2.31271e-006 7.68175e-007 0.177103 -18.2529 67.8111 19.3935 8.13649 25.2327 -3.48774 -171.416 7.60316 -2.39523 4.54188e-006 -4.6773e-006 -0.977083 -1.11582 -10.9097 0.170885 2.69008e-006 -6.75328e-007 -0.070553 17.4487 66.7033 -18.5322 -8.13376 25.1924 3.54194 
48.0288 106.11 -0.175642 -1.55496 1.35282 -0.541287 0.334464 0.43288 0.0123572 0.670716 4.8685 -0.00762522 0.671998 6.51352 -0.0189306 3.74533 -13.7167 -3.52445 -3.10679 7.08326 -3.61822 48.7262 -11.6223 -7.41889 109.998 11.6567 -53.2168 -1.71069e-005 1.49936e-006 -3.11418e-006 -128.728 83.4017 118.63 -5.51995e-006 -8.83022e-006 -3.00049 8.02887 -4.95141 0.697681 -46.9548 -8.71675 5.16635 -115.683 14.9374 57.088 7.40136e-006 -5.18178e-007 3.14964e-006 112.81 78.4841 -101.051 5.98026e-006 7.29195e-007 3 -8.02895 -4.95143 -0.697683 176.526 9.91859 1.37305 180 7.0158e-015 179.076 178.487 14.4597 179.704 2.31271e-006 7.68175e-007 0.174827 -18.2527 67.8128 19.3965 8.13649 25.2327 -3.48774 -171.401 7.37463 -2.40382 4.54188e-006 -4.6773e-006 -0.976964 -1.1292 -10.5908 0.161098 2.69008e-006 -6.75328e-007 -0.0635589 17.4164 66.6639 -18.5033 -8.13427 25.1998 3.53199 
48.0308 106.374 -0.146275 -1.55909 1.31103 -0.543003 0.328067 0.43366 0.0125786 0.657865 4.87006 -0.00491045 0.659091 6.51509 -0.0159959 3.76792 -13.6395 -3.52623 -3.11903 7.1076 -3.61599 48.7067 -11.6421 -7.43385 109.669 11.3161 -53.5174 -1.71069e-005 1.49936e-006 -3.11418e-006 -129.421 83.0226 119.008 -5.51995e-006 -8.83022e-006 -3.00048 8.02887 -4.95141 0.697681 -46.9372 -8.71345 5.16332 -115.268 14.5151 57.339 7.40136e-006 -5.18178e-007 3.14964e-006 114.33 78.0606 -102.196 5.98026e-006 7.29195e-007 3 -8.02895 -4.95143 -0.697683 176.566 9.75546 1.35493 180 7.0158e-015 179.076 178.492 14.3654 179.708 2.31271e-006 7.68175e-007 0.172841 -18.2535 67.8156 19.4004 8.13649 25.2327 -3.48774 -171.388 7.15839 -2.41332 4.54188e-006 -4.6773e-006 -0.976937 -1.14222 -10.2992 0.151683 2.69008e-006 -6.75328e-007 -0.0571281 17.3865 66.6274 -18.4766 -8.1348 25.2076 3.52154 
48.0882 106.616 -0.153656 -1.5637 1.27097 -0.544831 0.322625 0.434248 0.0126001 0.646933 4.87124 -0.00288677 0.648116 6.51627 -0.0137855 3.77872 -13.5568 -3.52818 -3.1244 7.12559 -3.6142 48.675 -11.6607 -7.44813 109.352 10.9722 -53.8171 -1.71069e-005 1.49936e-006 -3.11418e-006 -130.031 82.6473 119.305 -5.51995e-006 -8.83022e-006 -3.00048 8.02887 -4.95141 0.697681 -46.9219 -8.71236 5.16208 -114.86 14.0871 57.5935 7.40136e-006 -5.18178e-007 3.14964e-006 115.704 77.6379 -103.198 5.98026e-006 7.29195e-007 3 -8.02895 -4.95143 -0.697683 176.606 9.59959 1.33728 180 7.0158e-015 179.076 178.497 14.2817 179.713 2.31271e-006 7.68175e-007 0.171101 -18.2552 67.8195 19.4049 8.13649 25.2327 -3.48774 -171.376 6.95486 -2.42249 4.54188e-006 -4.6773e-006 -0.977018 -1.1537 -10.035 0.142995 2.69008e-006 -6.75328e-007 -0.0512885 17.3594 66.5944 -18.4525 -8.13531 25.2151 3.51134 
48.0642 106.885 -0.131678 -1.56876 1.23303 -0.546707 0.318229 0.434573 0.0125124 0.638104 4.87189 -0.00142633 0.639254 6.51692 -0.0121745 3.778 -13.4689 -3.53039 -3.12369 7.13714 -3.61305 48.6308 -11.6783 -7.46198 109.045 10.6243 -54.1152 -1.71069e-005 1.49936e-006 -3.11418e-006 -130.579 82.2753 119.539 -5.51995e-006 -8.83022e-006 -3.00048 8.02887 -4.95141 0.697681 -46.9085 -8.71377 5.16282 -114.459 13.6533 57.8521 7.40136e-006 -5.18178e-007 3.14964e-006 116.943 77.2183 -104.068 5.98026e-006 7.29195e-007 3 -8.02895 -4.95143 -0.697683 176.646 9.45007 1.31928 180 7.0158e-015 179.076 178.502 14.204 179.716 2.31271e-006 7.68175e-007 0.169565 -18.2578 67.8244 19.41 8.13649 25.2327 -3.48774 -171.366 6.76446 -2.43008 4.54188e-006 -4.6773e-006 -0.977221 -1.16247 -9.79817 0.135391 2.69008e-006 -6.75328e-007 -0.0460677 17.3359 66.5656 -18.4315 -8.13578 25.222 3.50212 
48.0638 107.116 -0.151389 -1.57426 1.19761 -0.54857 0.314971 0.434561 0.0124061 0.631561 4.87187 -0.000401305 0.632688 6.5169 -0.0110379 3.76605 -13.376 -3.53295 -3.11768 7.14214 -3.61277 48.5739 -11.6952 -7.47563 108.748 10.272 -54.4114 -1.71069e-005 1.49936e-006 -3.11418e-006 -131.082 81.9062 119.727 -5.51995e-006 -8.83022e-006 -3.00048 8.02887 -4.95141 0.697681 -46.8969 -8.71793 5.16577 -114.068 13.2135 58.1158 7.40136e-006 -5.18178e-007 3.14964e-006 118.056 76.8041 -104.818 5.98026e-006 7.29195e-007 3 -8.02895 -4.95143 -0.697683 176.686 9.306 1.3001 180 7.0158e-015 179.076 178.509 14.1274 179.719 2.31271e-006 7.68175e-007 0.168188 -18.2611 67.83 19.4154 8.13649 25.2327 -3.48774 -171.358 6.58761 -2.43487 4.54188e-006 -4.6773e-006 -0.977561 -1.16735 -9.58868 0.129225 2.69008e-006 -6.75328e-007 -0.0414938 17.3163 66.5415 -18.414 -8.13615 25.2275 3.49462 
48.0524 107.376 -0.134299 -1.58019 1.16509 -0.550356 0.312943 0.434139 0.0123718 0.627489 4.87102 0.000316145 0.628599 6.51606 -0.0102509 3.74314 -13.2786 -3.53594 -3.10718 7.14048 -3.61355 48.5041 -11.7115 -7.48936 108.462 9.91482 -54.7051 -1.71069e-005 1.49936e-006 -3.11418e-006 -131.553 81.5394 119.882 -5.51995e-006 -8.83022e-006 -3.00048 8.02887 -4.95141 0.697681 -46.8868 -8.72511 5.17111 -113.688 12.7676 58.3853 7.40136e-006 -5.18178e-007 3.14964e-006 119.053 76.3972 -105.456 5.98026e-006 7.29195e-007 3 -8.02895 -4.95143 -0.697683 176.725 9.16646 1.27895 180 7.0158e-015 179.076 178.518 14.047 179.721 2.31271e-006 7.68175e-007 0.166927 -18.2652 67.8362 19.4209 8.13649 25.2327 -3.48774 -171.352 6.42473 -2.43562 4.54188e-006 -4.6773e-006 -0.978054 -1.1672 -9.40651 0.124854 2.69008e-006 -6.75328e-007 -0.0375944 17.3012 66.5228 -18.4004 -8.1364 25.2313 3.48958 
48.0923 107.602 -0.141048 -1.58653 1.13586 -0.552003 0.312238 0.433235 0.0125001 0.62607 4.86922 0.00085386 0.627171 6.51425 -0.00968856 3.70957 -13.1769 -3.53945 -3.09297 7.13208 -3.61561 48.4212 -11.7276 -7.50341 108.185 9.55224 -54.996 -1.71069e-005 1.49936e-006 -3.11418e-006 -132.003 81.1743 120.016 -5.51995e-006 -8.83022e-006 -3.00048 8.02887 -4.95141 0.697681 -46.878 -8.73557 5.17906 -113.321 12.3157 58.6615 7.40136e-006 -5.18178e-007 3.14964e-006 119.94 75.9995 -105.993 5.98026e-006 7.29195e-007 3 -8.02895 -4.95143 -0.697683 176.764 9.03057 1.25499 180 7.0158e-015 179.075 178.531 13.958 179.722 2.31271e-006 7.68175e-007 0.165738 -18.2699 67.843 19.4264 8.13649 25.2327 -3.48774 -171.349 6.27623 -2.43109 4.54188e-006 -4.6773e-006 -0.978714 -1.16083 -9.25164 0.122634 2.69008e-006 -6.75328e-007 -0.0343976 17.2911 66.5101 -18.3912 -8.13649 25.2327 3.48773 
48.0728 107.861 -0.132893 -1.5945 1.10878 -0.552211 0.313255 0.431974 0.0124065 0.628112 4.86669 0.000358363 0.629223 6.51173 -0.010219 3.66034 -13.0669 -3.54395 -3.07096 7.11459 -3.61912 48.3184 -11.7429 -7.51748 107.924 9.18458 -55.2867 -1.71069e-005 1.49936e-006 -3.11418e-006 -132.422 80.8111 120.118 -5.51995e-006 -8.83022e-006 -3.00048 8.02887 -4.95141 0.697681 -46.872 -8.74995 5.19015 -112.963 11.8607 58.9517 7.40136e-006 -5.18178e-007 3.14964e-006 120.726 75.6073 -106.432 5.98026e-006 7.29195e-007 3 -8.02895 -4.95143 -0.697683 176.804 8.90028 1.22869 180 7.01579e-015 179.075 178.546 13.8728 179.721 2.31271e-006 7.68175e-007 0.164821 -18.2764 67.8517 19.4332 8.13649 25.2327 -3.48774 -171.347 6.14488 -2.42387 4.54188e-006 -4.6773e-006 -0.979562 -1.14938 -9.13477 0.122169 2.69008e-006 -6.75328e-007 -0.0320853 17.2862 66.5038 -18.3866 -8.13649 25.2327 3.48773 
